<svg id="Base" xmlns="http://www.w3.org/2000/svg" viewBox="0 0 590.86 590.86"><defs><style>.cls-1{fill:#fff;}.cls-2{fill:#18243a;}.cls-3{fill:#55b891;}.cls-4{fill:#5e7098;}</style></defs><circle class="cls-1" cx="295.43" cy="295.43" r="283.51"/><path class="cls-2" d="M295.43,590.86C132.53,590.86,0,458.33,0,295.43S132.53,0,295.43,0,590.86,132.53,590.86,295.43,458.33,590.86,295.43,590.86Zm0-567c-149.75,0-271.58,121.83-271.58,271.58S145.68,567,295.43,567,567,445.18,567,295.43,445.18,23.85,295.43,23.85Z"/><path class="cls-3" d="M426,243.32V207.4c0-12.25-9.58-22-21.36-22H186.24c-11.78,0-21.36,9.72-21.36,22V383.46c0,12.25,9.58,22,21.36,22H404.62c11.78,0,21.36-9.72,21.36-22V243.32ZM186.24,193.21H404.62c7.49,0,13.59,6.23,13.59,14.19v31.92H172.65V207.4C172.65,199.44,178.75,193.21,186.24,193.21ZM404.62,397.65H186.24c-7.49,0-13.59-6.23-13.59-14.19V247.1H418.21V383.46C418.21,391.42,412.11,397.65,404.62,397.65Z"/><path class="cls-3" d="M404.62,406.51H186.24c-12.38,0-22.45-10.34-22.45-23.05V207.4c0-12.71,10.07-23.05,22.45-23.05H404.62c12.38,0,22.45,10.34,22.45,23.05V383.46C427.07,396.17,417,406.51,404.62,406.51Zm-218.38-220c-11.18,0-20.28,9.36-20.28,20.88V383.46c0,11.52,9.1,20.89,20.28,20.89H404.62c11.18,0,20.28-9.37,20.28-20.89V207.4c0-11.52-9.1-20.88-20.28-20.88ZM404.62,398.74H186.24c-8.09,0-14.67-6.86-14.67-15.28V246H419.29V383.46C419.29,391.88,412.71,398.74,404.62,398.74ZM173.74,248.18V383.46c0,7.35,5.49,13.11,12.5,13.11H404.62c7,0,12.5-5.76,12.5-13.11V248.18Zm245.55-7.78H171.57v-33c0-8.42,6.58-15.27,14.67-15.27H404.62c8.09,0,14.67,6.85,14.67,15.27Zm-245.55-2.16H417.12V207.4c0-7.35-5.49-13.11-12.5-13.11H186.24c-7,0-12.5,5.76-12.5,13.11Z"/><path class="cls-3" d="M232.83,232.67c8.56,0,15.53-7.22,15.53-16.11s-7-16.1-15.53-16.1-15.54,7.22-15.54,16.1S224.26,232.67,232.83,232.67Zm0-24.44c4.27,0,7.75,3.74,7.75,8.33s-3.48,8.33-7.75,8.33-7.76-3.73-7.76-8.33S228.55,208.23,232.83,208.23Z"/><path class="cls-3" d="M232.83,233.75c-9.17,0-16.63-7.71-16.63-17.19s7.46-17.19,16.63-17.19,16.62,7.71,16.62,17.19S242,233.75,232.83,233.75Zm0-32.21c-8,0-14.46,6.74-14.46,15s6.49,15,14.46,15,14.45-6.74,14.45-15S240.79,201.54,232.83,201.54Zm0,24.44c-4.88,0-8.85-4.23-8.85-9.42s4-9.41,8.85-9.41,8.84,4.22,8.84,9.41S237.7,226,232.83,226Zm0-16.66a7.27,7.27,0,0,0,0,14.49c3.68,0,6.67-3.25,6.67-7.25S236.51,209.32,232.83,209.32Z"/><path class="cls-3" d="M270.68,232.67c8.57,0,15.54-7.22,15.54-16.11s-7-16.1-15.54-16.1-15.54,7.22-15.54,16.1S262.11,232.67,270.68,232.67Zm0-24.44c4.28,0,7.76,3.74,7.76,8.33s-3.48,8.33-7.76,8.33-7.76-3.73-7.76-8.33S266.4,208.23,270.68,208.23Z"/><path class="cls-3" d="M270.68,233.75c-9.16,0-16.62-7.71-16.62-17.19s7.46-17.19,16.62-17.19,16.62,7.71,16.62,17.19S279.84,233.75,270.68,233.75Zm0-32.21c-8,0-14.45,6.74-14.45,15s6.48,15,14.45,15,14.45-6.74,14.45-15S278.65,201.54,270.68,201.54Zm0,24.44c-4.88,0-8.84-4.23-8.84-9.42s4-9.41,8.84-9.41,8.84,4.22,8.84,9.41S275.56,226,270.68,226Zm0-16.66a7,7,0,0,0-6.68,7.24c0,4,3,7.25,6.68,7.25s6.67-3.25,6.67-7.25S274.36,209.32,270.68,209.32Z"/><path class="cls-3" d="M195,232.67c8.57,0,15.54-7.22,15.54-16.11s-7-16.1-15.54-16.1-15.54,7.22-15.54,16.1S186.4,232.67,195,232.67Zm0-24.44c4.28,0,7.76,3.74,7.76,8.33s-3.48,8.33-7.76,8.33-7.76-3.73-7.76-8.33S190.69,208.23,195,208.23Z"/><path class="cls-3" d="M195,233.75c-9.16,0-16.62-7.71-16.62-17.19s7.46-17.19,16.62-17.19,16.62,7.71,16.62,17.19S204.14,233.75,195,233.75Zm0-32.21c-8,0-14.45,6.74-14.45,15s6.48,15,14.45,15,14.45-6.74,14.45-15S202.94,201.54,195,201.54ZM195,226c-4.87,0-8.84-4.23-8.84-9.42s4-9.41,8.84-9.41,8.84,4.22,8.84,9.41S199.85,226,195,226Zm0-16.66c-3.68,0-6.67,3.25-6.67,7.24s3,7.25,6.67,7.25,6.68-3.25,6.68-7.25A7,7,0,0,0,195,209.32Z"/><path class="cls-3" d="M346.06,314.32H341V307.7c0-23.38-20.16-42.53-44.72-42.69-24.55,0-44.72,19.15-44.72,42.69v6.62H244.8a3.84,3.84,0,0,0-3.81,3.89v35.9a4,4,0,0,0,3.81,4.1h21.6a4.19,4.19,0,0,0,4-4.1V318.24a4,4,0,0,0-4-3.92h-7.08V307.7c0-19.25,16.68-34.91,36.92-34.91s37,15.79,37,34.91v6.62H326a3.91,3.91,0,0,0-3.89,3.92v35.87a4.07,4.07,0,0,0,3.89,4.1h5v7.13a5,5,0,0,1-4.79,5.09H314.86a11.89,11.89,0,1,0-.17,7.78H326.2a12.76,12.76,0,0,0,12.56-12.87v-7.13h7.3a4,4,0,0,0,3.81-4.1V318.24a3.85,3.85,0,0,0-3.78-3.92Zm-83.41,36.11H248.76V322.1h13.89Zm40.84,27.64a4.17,4.17,0,1,1,4.17-4.17,4.17,4.17,0,0,1-4.17,4.17Zm38.61-27.64H329.87V322.1H342.1Z"/><path class="cls-3" d="M303.5,387.05h-.07a13.05,13.05,0,1,1,12.2-17.7H326.2a3.92,3.92,0,0,0,3.7-4v-6H326a5.16,5.16,0,0,1-5-5.19V318.24a5,5,0,0,1,5-5h6.13V307.7c0-18.52-16.1-33.7-35.89-33.82S260.4,289.05,260.4,307.7v5.53h6a5.11,5.11,0,0,1,5.11,5v35.9a5.28,5.28,0,0,1-5.07,5.18H244.8a5.11,5.11,0,0,1-4.9-5.18V318.24a5,5,0,0,1,4.89-5h5.67V307.7c0-24.14,20.55-43.77,45.8-43.77,25.26.16,45.81,19.8,45.81,43.77v5.53h4.07a4.92,4.92,0,0,1,4.82,5v35.85a5.11,5.11,0,0,1-4.9,5.18h-6.21v6a13.82,13.82,0,0,1-13.65,14H315.42A13.11,13.11,0,0,1,303.5,387.05Zm0-23.93a10.88,10.88,0,0,0,0,21.76,11,11,0,0,0,10.23-7.05l.27-.71H326.2a11.64,11.64,0,0,0,11.48-11.78v-8.22h8.38a2.92,2.92,0,0,0,2.73-3V318.24a2.75,2.75,0,0,0-.78-2,2.78,2.78,0,0,0-1.94-.85v0H339.9v-7.7c0-22.78-19.58-41.44-43.64-41.6-24.06,0-43.63,18.66-43.63,41.6v7.7H244.8a2.77,2.77,0,0,0-2.73,2.8v35.91a2.92,2.92,0,0,0,2.73,3h21.6a3.1,3.1,0,0,0,3-3V318.24a3,3,0,0,0-3-2.84h-8.16v-7.7c0-19.85,17-36,38-36s38.05,16.28,38.05,36v7.7H326a2.85,2.85,0,0,0-2.81,2.84v35.87a3,3,0,0,0,2.86,3h6v8.22a6,6,0,0,1-5.87,6.17H314.06l-.24-.76a10.86,10.86,0,0,0-10.34-7.63Zm0,16h0a5.25,5.25,0,1,1,5.25-5.25A5.26,5.26,0,0,1,303.49,379.15Zm0-8.34a3.09,3.09,0,1,0,3.08,3.09A3.1,3.1,0,0,0,303.49,370.81Zm39.69-19.3H328.79V321h14.39ZM331,349.35H341V323.18H331Zm-67.22,2.16H247.68V321h16.06Zm-13.89-2.16h11.72V323.18H249.85Z"/><circle class="cls-4" cx="493.59" cy="97.27" r="85.35"/><path class="cls-2" d="M493.59,187a89.68,89.68,0,1,1,89.68-89.68A89.78,89.78,0,0,1,493.59,187Zm0-170.69a81,81,0,1,0,81,81A81.1,81.1,0,0,0,493.59,16.26Z"/><path class="cls-1" d="M535.93,69v47.05a7.55,7.55,0,0,1-7.53,7.52H501.12v5.65h7.53a1.88,1.88,0,0,1,0,3.76H478.54a1.88,1.88,0,1,1,0-3.76h7.52v-5.65H458.78a7.55,7.55,0,0,1-7.53-7.52V69a7.55,7.55,0,0,1,7.53-7.52H528.4A7.55,7.55,0,0,1,535.93,69ZM455,110.44h77.15V69a3.78,3.78,0,0,0-3.77-3.76H458.78A3.77,3.77,0,0,0,455,69Zm42.33,13.17h-7.52v5.65h7.52Zm34.82-9.41H455v1.89a3.77,3.77,0,0,0,3.76,3.76H528.4a3.78,3.78,0,0,0,3.77-3.76Z"/><path class="cls-1" d="M508.65,133.29H478.54a2.15,2.15,0,0,1,0-4.3h7.25v-5.11h-27a7.8,7.8,0,0,1-7.8-7.79V69a7.8,7.8,0,0,1,7.8-7.79H528.4A7.8,7.8,0,0,1,536.2,69v47.05a7.8,7.8,0,0,1-7.8,7.79h-27V129h7.26a2.15,2.15,0,1,1,0,4.3Zm-30.11-3.76a1.61,1.61,0,0,0,0,3.22h30.11a1.61,1.61,0,1,0,0-3.22h-7.8v-6.19H528.4a7.26,7.26,0,0,0,7.26-7.25V69a7.26,7.26,0,0,0-7.26-7.25H458.78A7.26,7.26,0,0,0,451.52,69v47.05a7.26,7.26,0,0,0,7.26,7.25h27.55v6.19Zm19.09,0h-8.07v-6.19h8.07ZM490.1,129h7v-5.11h-7Zm38.3-8.87H458.78a4,4,0,0,1-4-4v-2.16h77.7v2.16A4,4,0,0,1,528.4,120.12Zm-73.11-5.64v1.61a3.49,3.49,0,0,0,3.49,3.49H528.4a3.5,3.5,0,0,0,3.5-3.49v-1.61Zm77.15-3.77h-77.7V69a4,4,0,0,1,4-4H528.4a4,4,0,0,1,4,4Zm-77.15-.54H531.9V69a3.5,3.5,0,0,0-3.5-3.49H458.78A3.49,3.49,0,0,0,455.29,69Z"/></svg>