<svg id="Base" xmlns="http://www.w3.org/2000/svg" viewBox="0 0 590.86 590.86"><defs><style>.cls-1{fill:#fff;}.cls-2{fill:#18243a;}.cls-3{fill:#5e7098;}.cls-4{fill:#55b891;}</style></defs><circle class="cls-1" cx="295.43" cy="295.43" r="283.51"/><path class="cls-2" d="M295.43,590.86C132.53,590.86,0,458.33,0,295.43S132.53,0,295.43,0,590.86,132.53,590.86,295.43,458.33,590.86,295.43,590.86Zm0-567c-149.75,0-271.58,121.83-271.58,271.58S145.68,567,295.43,567,567,445.18,567,295.43,445.18,23.85,295.43,23.85Z"/><circle class="cls-3" cx="493.59" cy="97.27" r="85.35"/><path class="cls-2" d="M493.59,187a89.68,89.68,0,1,1,89.68-89.68A89.78,89.78,0,0,1,493.59,187Zm0-170.69a81,81,0,1,0,81,81A81.1,81.1,0,0,0,493.59,16.26Z"/><path class="cls-1" d="M535.93,69v47.05a7.55,7.55,0,0,1-7.53,7.52H501.12v5.65h7.53a1.88,1.88,0,0,1,0,3.76H478.54a1.88,1.88,0,1,1,0-3.76h7.52v-5.65H458.78a7.55,7.55,0,0,1-7.53-7.52V69a7.55,7.55,0,0,1,7.53-7.52H528.4A7.55,7.55,0,0,1,535.93,69ZM455,110.44h77.15V69a3.78,3.78,0,0,0-3.77-3.76H458.78A3.77,3.77,0,0,0,455,69Zm42.33,13.17h-7.52v5.65h7.52Zm34.82-9.41H455v1.89a3.77,3.77,0,0,0,3.76,3.76H528.4a3.78,3.78,0,0,0,3.77-3.76Z"/><path class="cls-1" d="M508.65,133.29H478.54a2.15,2.15,0,0,1,0-4.3h7.25v-5.11h-27a7.8,7.8,0,0,1-7.8-7.79V69a7.8,7.8,0,0,1,7.8-7.79H528.4A7.8,7.8,0,0,1,536.2,69v47.05a7.8,7.8,0,0,1-7.8,7.79h-27V129h7.26a2.15,2.15,0,1,1,0,4.3Zm-30.11-3.76a1.61,1.61,0,0,0,0,3.22h30.11a1.61,1.61,0,1,0,0-3.22h-7.8v-6.19H528.4a7.26,7.26,0,0,0,7.26-7.25V69a7.26,7.26,0,0,0-7.26-7.25H458.78A7.26,7.26,0,0,0,451.52,69v47.05a7.26,7.26,0,0,0,7.26,7.25h27.56v6.19Zm19.09,0h-8.07v-6.19h8.07ZM490.1,129h7v-5.11h-7Zm38.3-8.87H458.78a4,4,0,0,1-4-4v-2.16h77.7v2.16A4,4,0,0,1,528.4,120.12Zm-73.11-5.64v1.61a3.49,3.49,0,0,0,3.49,3.49H528.4a3.5,3.5,0,0,0,3.5-3.49v-1.61Zm77.15-3.77h-77.7V69a4,4,0,0,1,4-4H528.4a4,4,0,0,1,4,4Zm-77.15-.54H531.9V69a3.5,3.5,0,0,0-3.5-3.49H458.78A3.49,3.49,0,0,0,455.29,69Z"/><path class="cls-4" d="M206.14,270.38A13.16,13.16,0,0,0,193,257.24h-1a29.82,29.82,0,0,0-16.22-22v-9.21a13.14,13.14,0,0,0-26.27,0v9.2a29.84,29.84,0,0,0-16.22,22h-1a13.12,13.12,0,0,0-6,24.81,15.73,15.73,0,0,0-2.21,8.05v86.41a15.94,15.94,0,0,0,15.94,15.94h45.12a16,16,0,0,0,15.94-15.94v-86.4a15.89,15.89,0,0,0-2.21-8.06A13.13,13.13,0,0,0,206.14,270.38Zm-50.33-27.65a4.68,4.68,0,0,0,3.09-4.4V226.06a3.8,3.8,0,1,1,7.59,0v12.29a4.66,4.66,0,0,0,3.09,4.39,20.47,20.47,0,0,1,13,14.51H142.84A20.47,20.47,0,0,1,155.81,242.73Zm-23.43,23.85H193a3.8,3.8,0,0,1,0,7.59H132.38a3.8,3.8,0,0,1,0-7.59Zm59.23,21.85-58.08,58.08v-56.4a6.61,6.61,0,0,1,6.6-6.6h45.12A6.59,6.59,0,0,1,191.61,288.43Zm-6.35,94.69H140.13a6.61,6.61,0,0,1-6.6-6.6v-16.8l58.33-58.33v75.13A6.62,6.62,0,0,1,185.26,383.12Z"/><path class="cls-4" d="M334.61,405.58H468.69a2.75,2.75,0,0,0,2.92-2.91v-144a32.17,32.17,0,0,0-2.92-13.7L456.74,219V202.71a2.75,2.75,0,0,0-2.91-2.91H349.77a2.75,2.75,0,0,0-2.92,2.91v16l-12,26.53A32.16,32.16,0,0,0,332,259V403C331.7,404.13,333.16,405.58,334.61,405.58Zm18.07-200.24h98.53v10.78H352.68Zm-15.15,53.34a29.31,29.31,0,0,1,2.33-11.37L351.52,222H451.79l11.66,25.36a24.86,24.86,0,0,1,2.33,11.37V399.75H337.53Z"/><path class="cls-4" d="M468.69,407H334.61a4.39,4.39,0,0,1-3.35-1.7,3.26,3.26,0,0,1-.73-2.52V259a33.68,33.68,0,0,1,3.05-14.32l11.82-26.22V202.71a4.23,4.23,0,0,1,4.37-4.37H453.83a4.18,4.18,0,0,1,4.37,4.37v16L470,244.37a33.57,33.57,0,0,1,3.05,14.31v144A4.19,4.19,0,0,1,468.69,407ZM349.77,201.25a1.32,1.32,0,0,0-1.46,1.46v16.35l-12.08,26.81a30.71,30.71,0,0,0-2.78,13.1V403.14l-.05.17a1.53,1.53,0,0,0,1.21.82H468.69a1.32,1.32,0,0,0,1.46-1.46v-144a30.6,30.6,0,0,0-2.78-13.09l-12.08-26.24V202.71a1.32,1.32,0,0,0-1.46-1.46Zm117.47,200H336.07V258.68a30.9,30.9,0,0,1,2.44-11.93l12.08-26.26H452.72l12,26.21a26,26,0,0,1,2.47,12ZM339,398.3H464.32V258.68A23.23,23.23,0,0,0,462.14,248l-11.29-24.55h-98.4l-11.27,24.51a28,28,0,0,0-2.2,10.76ZM452.66,217.58H351.23v-13.7H452.66Zm-98.52-2.92h95.61v-7.87H354.14Z"/><path class="cls-4" d="M385.62,309.39a17.66,17.66,0,0,0,7.87,10.79,16.37,16.37,0,0,0,9,2.62,22.59,22.59,0,0,0,4.37-.58,17.59,17.59,0,0,0,5-32.06,17.65,17.65,0,0,0-26.24,19.23Zm16.91-16a11.72,11.72,0,0,1,11.07,9,11.56,11.56,0,1,1-22.44,5.54h0a11.67,11.67,0,0,1,8.45-14A8.46,8.46,0,0,1,402.53,293.36Z"/><path class="cls-4" d="M402.53,324.26a17.91,17.91,0,0,1-9.85-2.87,19,19,0,0,1-8.47-11.64h0a18.82,18.82,0,0,1,2.17-14.44,19.07,19.07,0,0,1,12-8.61,18.8,18.8,0,0,1,14.17,2.19,19.05,19.05,0,0,1-5.33,34.74A23.79,23.79,0,0,1,402.53,324.26ZM387,309a16.14,16.14,0,0,0,7.22,9.9,15,15,0,0,0,8.27,2.4,20.66,20.66,0,0,0,4.07-.55,16.08,16.08,0,1,0-17.73-24A15.87,15.87,0,0,0,387,309Zm15.43,9.12a13.11,13.11,0,0,1-6.81-1.91,12.72,12.72,0,0,1-5.92-8,13.19,13.19,0,0,1,9.54-15.74,9.33,9.33,0,0,1,3.25-.63A13.2,13.2,0,0,1,415,302.14a13,13,0,0,1-1.57,9.75,12.74,12.74,0,0,1-8,5.92A12.91,12.91,0,0,1,402.47,318.16Zm.06-23.34a7,7,0,0,0-2.45.51,10.26,10.26,0,0,0-7.5,12.27,9.82,9.82,0,0,0,4.58,6.16,10.2,10.2,0,0,0,7.65,1.21,9.79,9.79,0,0,0,6.16-4.58,10.25,10.25,0,0,0,1.22-7.65,10.29,10.29,0,0,0-9.66-7.92Z"/><path class="cls-4" d="M371.34,298a8.58,8.58,0,0,0,4.66,1.16,5,5,0,0,0,2-.29,9.61,9.61,0,0,0,5.54-4.08c1.46-2,1.46-4.37.88-6.7a9.65,9.65,0,0,0-4.08-5.54,8.95,8.95,0,0,0-13.12,9.91A8.82,8.82,0,0,0,371.34,298Zm2-9a4.31,4.31,0,0,1,1.75-1.46H376a2.19,2.19,0,0,1,1.46.29,4.38,4.38,0,0,1,1.46,1.75,3.33,3.33,0,0,1-.29,2.34,4.36,4.36,0,0,1-1.75,1.45,3.29,3.29,0,0,1-2.33-.29,4.18,4.18,0,0,1-1.46-1.75A2.21,2.21,0,0,1,373.38,289Z"/><path class="cls-4" d="M376,300.65a9.93,9.93,0,0,1-5.4-1.37,10.29,10.29,0,0,1-4.76-6.44,10.47,10.47,0,0,1,7.48-12.55,10.35,10.35,0,0,1,7.78,1,11.19,11.19,0,0,1,4.77,6.45c.79,3.17.43,5.76-1.1,7.91a11.16,11.16,0,0,1-6.24,4.61A6.42,6.42,0,0,1,376,300.65Zm0-17.78a8.24,8.24,0,0,0-2,.25,7.51,7.51,0,0,0-5.35,9,7.38,7.38,0,0,0,3.39,4.63l0,0a7.14,7.14,0,0,0,3.91,1,4.8,4.8,0,0,0,1.39-.13l.3-.11A8.22,8.22,0,0,0,382.4,294c1-1.43,1.22-3.18.64-5.5a8.16,8.16,0,0,0-3.51-4.71A7.18,7.18,0,0,0,376,282.87Zm.09,12.05a5,5,0,0,1-1.71-.36l-.31-.11a5.59,5.59,0,0,1-2.3-2.48,3.74,3.74,0,0,1,.41-3.85,6,6,0,0,1,2.28-1.89l.3-.15H376a3.54,3.54,0,0,1,2.3.55,6,6,0,0,1,1.92,2.29,4.29,4.29,0,0,1-.1,3.14l-.11.31a5.7,5.7,0,0,1-2.48,2.3A4.48,4.48,0,0,1,376.11,294.92Zm-.95-3.18.19.07c.69.24.81.25,1.07.17a3.37,3.37,0,0,0,.91-.74l0-.14c.23-.66.26-.8.17-1.07a3.37,3.37,0,0,0-.73-.91l-.18-.11a6,6,0,0,0-.62,0h-.5a2.93,2.93,0,0,0-.82.66l-.27.37c-.08.08-.09.4.06.84A3.79,3.79,0,0,0,375.16,291.74Zm1.52-2.72Zm-.25-.16.12.09Z"/><path class="cls-4" d="M386.79,283.16a8.5,8.5,0,0,0,4.66,1.17,5,5,0,0,0,2-.29A9.7,9.7,0,0,0,399,280a8.87,8.87,0,0,0,.87-6.7,9,9,0,0,0-10.78-6.41,9.64,9.64,0,0,0-5.54,4.08,8.91,8.91,0,0,0-.87,6.7A8.82,8.82,0,0,0,386.79,283.16Zm2-9a4.23,4.23,0,0,1,1.75-1.45h.87a2.2,2.2,0,0,1,1.46.29,4.33,4.33,0,0,1,1.46,1.75,3.25,3.25,0,0,1-.3,2.33,4.29,4.29,0,0,1-1.74,1.46,3.33,3.33,0,0,1-2.34-.29,4.36,4.36,0,0,1-1.45-1.75A3.13,3.13,0,0,1,388.83,274.12Z"/><path class="cls-4" d="M391.45,285.78a10,10,0,0,1-5.4-1.36,10.59,10.59,0,0,1-3.73-14.23,11.16,11.16,0,0,1,6.45-4.77,10.47,10.47,0,0,1,12.55,7.48,10.36,10.36,0,0,1-1,7.78,11.18,11.18,0,0,1-6.32,4.73A6.42,6.42,0,0,1,391.45,285.78ZM391.23,268a7.62,7.62,0,0,0-1.76.21,8.13,8.13,0,0,0-4.7,3.52,7.47,7.47,0,0,0-.65,5.5,7.36,7.36,0,0,0,3.39,4.62l0,0a7.14,7.14,0,0,0,3.91,1,4.5,4.5,0,0,0,1.39-.14l.3-.11a8.16,8.16,0,0,0,4.71-3.51A7.51,7.51,0,0,0,391.23,268Zm.33,12a4.85,4.85,0,0,1-1.72-.37l-.31-.1a5.7,5.7,0,0,1-2.3-2.48,4.5,4.5,0,0,1,.3-3.64,5.72,5.72,0,0,1,2.4-2.11l.3-.15h1.22a3.54,3.54,0,0,1,2.3.55,6,6,0,0,1,1.92,2.3,4.2,4.2,0,0,1-.11,3.13l-.1.31a5.64,5.64,0,0,1-2.48,2.3A4.25,4.25,0,0,1,391.56,280.06Zm-1.43-5.28a1.73,1.73,0,0,0-.21,1.22,3.57,3.57,0,0,0,.73.91l.15,0c.68.24.8.26,1.06.17a3.29,3.29,0,0,0,.92-.73l0-.14c.23-.66.26-.8.17-1.07a3.24,3.24,0,0,0-.73-.91l-.18-.12H391A2.78,2.78,0,0,0,390.13,274.78Zm2-.62Zm-.25-.17.12.1Z"/><path class="cls-4" d="M413.31,284.62a5,5,0,0,0,2-.29,9.69,9.69,0,0,0,5.54-4.08,8.94,8.94,0,0,0,.88-6.71,9.66,9.66,0,0,0-4.09-5.54,9,9,0,0,0-6.7-.87,9.64,9.64,0,0,0-5.54,4.08,9,9,0,0,0-.87,6.7A9.65,9.65,0,0,0,413.31,284.62Zm-2.62-10.5a4.29,4.29,0,0,1,1.75-1.45h.87a2.19,2.19,0,0,1,1.46.29,4.25,4.25,0,0,1,1.46,1.75,3.3,3.3,0,0,1-.29,2.33,4.38,4.38,0,0,1-1.75,1.46,3.29,3.29,0,0,1-2.33-.29,4.3,4.3,0,0,1-1.46-1.75A3.13,3.13,0,0,1,410.69,274.12Z"/><path class="cls-4" d="M413.31,286.08a11.1,11.1,0,0,1-10.13-7.74,10.34,10.34,0,0,1,1-7.85,11.11,11.11,0,0,1,6.45-4.77,10.31,10.31,0,0,1,7.78,1,11.19,11.19,0,0,1,4.77,6.45,10.35,10.35,0,0,1-1,7.78,11.24,11.24,0,0,1-6.32,4.74A6.42,6.42,0,0,1,413.31,286.08Zm0-17.79a7.76,7.76,0,0,0-6.7,3.77,7.47,7.47,0,0,0-.65,5.5,8.18,8.18,0,0,0,7.33,5.6,4.47,4.47,0,0,0,1.39-.14l.3-.11a8.11,8.11,0,0,0,4.7-3.51,7.38,7.38,0,0,0,.65-5.5,8.13,8.13,0,0,0-3.51-4.71A7.08,7.08,0,0,0,413.33,268.29Zm.09,11.77a4.85,4.85,0,0,1-1.72-.37l-.3-.1a5.68,5.68,0,0,1-2.31-2.48,4.55,4.55,0,0,1,.29-3.64h0a5.72,5.72,0,0,1,2.4-2.11l.3-.15h1.22a3.54,3.54,0,0,1,2.3.55,6,6,0,0,1,1.92,2.3,4.26,4.26,0,0,1-.1,3.13l-.11.31a5.64,5.64,0,0,1-2.48,2.3A4.25,4.25,0,0,1,413.42,280.06ZM412,274.78a1.73,1.73,0,0,0-.21,1.22,3.57,3.57,0,0,0,.73.91l.15,0c.68.24.8.26,1.07.17a3.37,3.37,0,0,0,.91-.73l0-.15c.24-.68.26-.8.17-1.06a3.08,3.08,0,0,0-.73-.91l-.18-.12h-1.12A2.93,2.93,0,0,0,412,274.78Zm2-.62Zm-.25-.17.12.1Z"/><path class="cls-4" d="M433.72,282.58a8.94,8.94,0,0,0-6.71-.88,9.69,9.69,0,0,0-5.54,4.08,9,9,0,0,0-.87,6.71,8.67,8.67,0,0,0,8.45,6.7,5,5,0,0,0,2-.29,9.64,9.64,0,0,0,5.54-4.08,8.92,8.92,0,0,0,.88-6.7C437.21,285.78,435.76,284,433.72,282.58Zm-2,9.33a4.36,4.36,0,0,1-1.75,1.45,3.29,3.29,0,0,1-2.33-.29,4.18,4.18,0,0,1-1.46-1.75,3.3,3.3,0,0,1,.29-2.33c.29-.87,1.17-1.17,1.75-1.46h.87a2.19,2.19,0,0,1,1.46.29,4.38,4.38,0,0,1,1.46,1.75A2.31,2.31,0,0,1,431.68,291.91Z"/><path class="cls-4" d="M429.05,300.65a10.07,10.07,0,0,1-9.87-7.86,10.26,10.26,0,0,1,1-7.73,11.11,11.11,0,0,1,6.45-4.77,10.34,10.34,0,0,1,7.78,1l.12.08c2.64,1.89,4.08,4,4.39,6.55a10.15,10.15,0,0,1-1.05,7.6,11.24,11.24,0,0,1-6.32,4.74A6.42,6.42,0,0,1,429.05,300.65Zm.28-17.78a7.86,7.86,0,0,0-2,.25,8.13,8.13,0,0,0-4.71,3.51,7.47,7.47,0,0,0-.65,5.5,7.27,7.27,0,0,0,7,5.6,4.8,4.8,0,0,0,1.39-.13l.3-.11a8.17,8.17,0,0,0,4.7-3.52,7.37,7.37,0,0,0,.65-5.5,6.67,6.67,0,0,0-3.16-4.66A7.22,7.22,0,0,0,429.33,282.87Zm-.17,12.05a5.08,5.08,0,0,1-1.72-.36l-.31-.11a5.65,5.65,0,0,1-2.3-2.48,4.2,4.2,0,0,1,.11-3.13l.11-.31a3.8,3.8,0,0,1,2.26-2.2l.52-.25h1.22a3.54,3.54,0,0,1,2.3.55,6,6,0,0,1,1.92,2.29,3.79,3.79,0,0,1-.34,3.73,5.92,5.92,0,0,1-2.35,2A4.48,4.48,0,0,1,429.16,294.92Zm-.65-5.93c-.31.14-.65.31-.7.46l-.12.35c-.23.65-.26.79-.17,1.06a3.24,3.24,0,0,0,.73.91l.15,0c.68.23.8.26,1.07.17a3.57,3.57,0,0,0,.91-.73l.08-.15a.89.89,0,0,0,.12-1.07,3.37,3.37,0,0,0-.73-.91l-.18-.11a6,6,0,0,0-.62,0Zm1.22,0Zm-.25-.16.12.1Z"/><path class="cls-4" d="M432.55,344.37H372.21a2.92,2.92,0,0,0,0,5.83h60.34a2.92,2.92,0,1,0,0-5.83Z"/><path class="cls-4" d="M432.55,351.66H372.21a4.38,4.38,0,0,1,0-8.75h60.34a4.38,4.38,0,0,1,0,8.75Zm-60.34-5.83a1.46,1.46,0,0,0,0,2.91h60.34a1.46,1.46,0,1,0,0-2.91Z"/><path class="cls-2" d="M269.05,425a4.33,4.33,0,0,1-4.34-4.33V184.72a4.34,4.34,0,1,1,8.67,0V420.66A4.33,4.33,0,0,1,269.05,425Z"/></svg>