<svg id="Base" xmlns="http://www.w3.org/2000/svg" viewBox="0 0 590.86 590.86"><defs><style>.cls-1{fill:#fff;}.cls-2{fill:#18243a;}.cls-3{fill:#55b891;}</style></defs><circle class="cls-1" cx="295.43" cy="295.43" r="283.51"/><path class="cls-2" d="M295.43,590.86C132.53,590.86,0,458.33,0,295.43S132.53,0,295.43,0,590.86,132.53,590.86,295.43,458.33,590.86,295.43,590.86Zm0-567c-149.75,0-271.58,121.83-271.58,271.58S145.68,567,295.43,567,567,445.18,567,295.43,445.18,23.85,295.43,23.85Z"/><path class="cls-3" d="M359.85,315.12v-39a21.3,21.3,0,0,0,14.32-20v-3.94l-15-64.06h-156l-15,64.06v3.94a21.31,21.31,0,0,0,14.31,20V388.49h126a10.68,10.68,0,1,0,10-7.16H274V291.85H223.85v89.48H209.53V277.53a21.71,21.71,0,0,0,17.9-9.66,21.41,21.41,0,0,0,35.79,0,21.41,21.41,0,0,0,35.79,0,21.41,21.41,0,0,0,35.79,0,21.71,21.71,0,0,0,17.9,9.66v36.15l-22.19-5,8.59,51.18h63.7V324.78ZM342,392.07a3.58,3.58,0,1,1-3.58-3.58A3.39,3.39,0,0,1,342,392.07ZM231,299H266.8v82.32H231Zm-21.48-28.63a14.37,14.37,0,0,1-14.32-14.32h28.64A14.37,14.37,0,0,1,209.53,270.38Zm14.68-21.48H196.29l12.52-53.69h21.84Zm21.11,21.48A14.36,14.36,0,0,1,231,256.06h28.63A14.36,14.36,0,0,1,245.32,270.38ZM260,248.9H231.72l6.44-53.69h25.42Zm10-53.69h21.83l3.22,53.69H266.8Zm11.09,75.17a14.36,14.36,0,0,1-14.31-14.32h28.63A14.36,14.36,0,0,1,281.11,270.38Zm35.79,0a14.36,14.36,0,0,1-14.31-14.32h28.63A14.36,14.36,0,0,1,316.9,270.38ZM302.23,248.9l-2.86-53.69h25.41l6.44,53.69Zm35.79,0-6.44-53.69h21.83l12.53,53.69Zm.36,7.16H367a14.32,14.32,0,1,1-28.63,0Zm57.27,96.64H344.82L339.1,318l56.55,12.53Z"/><path class="cls-3" d="M338.38,403.89a11.69,11.69,0,0,1-11.82-11.82,9.77,9.77,0,0,1,.33-2.5H201.29V276.86A22.35,22.35,0,0,1,187,256.06l0-4.18L202.23,187H360l15.26,65.15v3.94a22.36,22.36,0,0,1-14.32,20.8v37.39l42.95,9.66v37H338.18l-9-53.68,22.44,5.07V278.59a22.87,22.87,0,0,1-16.81-8.89,22.41,22.41,0,0,1-35.79,0,22.41,22.41,0,0,1-35.79,0,22.41,22.41,0,0,1-35.79,0,22.89,22.89,0,0,1-16.82,8.89V380.25h12.15V290.77H275v89.48h63.34a11.82,11.82,0,0,1,0,23.64ZM203.46,387.4h126.4l-.47,1.43a9.73,9.73,0,0,0-.66,3.24,9.65,9.65,0,1,0,9.65-9.66H272.87V292.93H224.93v89.48H208.45v-106h1.08a20.48,20.48,0,0,0,17-9.19l.9-1.3.89,1.3a20.32,20.32,0,0,0,34,0l.9-1.3.89,1.3a20.33,20.33,0,0,0,34,0L299,266l.89,1.3a20.33,20.33,0,0,0,34,0l.89-1.3.89,1.3a20.51,20.51,0,0,0,17,9.19h1.08V315l-21.94-5L340,358.77h61.71V325.65l-43-9.67V275.33l.73-.25a20.19,20.19,0,0,0,13.59-19v-3.81l-14.81-63.11H204l-14.81,63.11v3.81a20.19,20.19,0,0,0,13.59,19l.73.25Zm134.92,9.33a4.67,4.67,0,1,1,4.66-4.66A4.46,4.46,0,0,1,338.38,396.73Zm0-7.16a2.5,2.5,0,1,0,2.5,2.5A2.32,2.32,0,0,0,338.38,389.57Zm-70.5-7.16h-38V297.93h38Zm-35.79-2.16h33.62V300.09H232.09Zm164.64-26.47H343.9l-6.13-37.21,59,13.07Zm-51-2.17h48.82V331.38l-54.13-12Zm7-80.15a15.41,15.41,0,0,1-15.4-15.4V255h30.8v1.08A15.42,15.42,0,0,1,352.7,271.46Zm-13.19-14.32a13.23,13.23,0,0,0,26.37,0ZM316.9,271.46a15.42,15.42,0,0,1-15.4-15.4V255h30.81v1.08A15.42,15.42,0,0,1,316.9,271.46Zm-13.18-14.32a13.23,13.23,0,0,0,26.37,0Zm-22.61,14.32a15.42,15.42,0,0,1-15.4-15.4V255h30.8v1.08A15.41,15.41,0,0,1,281.11,271.46Zm-13.18-14.32a13.23,13.23,0,0,0,26.37,0Zm-22.61,14.32a15.42,15.42,0,0,1-15.4-15.4V255h30.8v1.08A15.42,15.42,0,0,1,245.32,271.46Zm-13.19-14.32a13.23,13.23,0,0,0,26.38,0Zm-22.6,14.32a15.42,15.42,0,0,1-15.4-15.4V255h30.8v1.08A15.42,15.42,0,0,1,209.53,271.46Zm-13.19-14.32a13.23,13.23,0,0,0,26.38,0Zm171-7.15H337.06l-6.7-55.86h23.91ZM339,247.82h25.59l-12-51.52H332.8ZM332.44,250H301.2l-3-55.86h27.52Zm-29.18-2.17H330l-6.18-51.52H300.51Zm-7,2.17H265.65L269,194.13h23.87ZM268,247.82h26l-3.09-51.52H271ZM261,250H230.5l6.7-55.86h27.54Zm-28.07-2.17h26l3.44-51.52h-23.3ZM225.17,250H194.92l13-55.86h23.92Zm-27.52-2.17h25.59l6.19-51.52H209.68Z"/><path class="cls-3" d="M330.15,364.15l-8.59-49a10.77,10.77,0,0,0-10.74-8.95H299v7.16h11.81a3.48,3.48,0,0,1,3.58,2.86l8.59,49a10.76,10.76,0,0,0,10.74,8.95H402.8V367H333.73A3.48,3.48,0,0,1,330.15,364.15Z"/><path class="cls-3" d="M403.89,375.26H333.73a11.84,11.84,0,0,1-11.8-9.82l-8.6-49.06a2.38,2.38,0,0,0-2.51-2H297.93v-9.33h12.89a11.85,11.85,0,0,1,11.8,9.82L331.21,364a2.4,2.4,0,0,0,2.52,2h70.16Zm-103.8-63h10.73a4.54,4.54,0,0,1,4.64,3.74l8.6,49.06a9.72,9.72,0,0,0,9.67,8h68v-5h-68a4.56,4.56,0,0,1-4.65-3.74v0l-8.59-49a9.72,9.72,0,0,0-9.67-8.05H300.09Z"/><path class="cls-3" d="M392.07,381.33a10.74,10.74,0,1,0,10.73,10.74A10.54,10.54,0,0,0,392.07,381.33Zm0,14.32a3.58,3.58,0,1,1,3.58-3.58A3.39,3.39,0,0,1,392.07,395.65Z"/><path class="cls-3" d="M392.07,403.89a11.82,11.82,0,1,1,11.82-11.82A11.69,11.69,0,0,1,392.07,403.89Zm0-21.48a9.66,9.66,0,1,0,9.65,9.66A9.44,9.44,0,0,0,392.07,382.41Zm0,14.32a4.67,4.67,0,1,1,4.66-4.66A4.47,4.47,0,0,1,392.07,396.73Zm0-7.16a2.5,2.5,0,1,0,2.49,2.5A2.32,2.32,0,0,0,392.07,389.57Z"/></svg>