<svg id="Base" xmlns="http://www.w3.org/2000/svg" viewBox="0 0 590.86 590.86"><defs><style>.cls-1{fill:#fff;}.cls-2{fill:#18243a;}.cls-3{fill:#5e7098;}.cls-4{fill:#55b891;}</style></defs><circle class="cls-1" cx="295.43" cy="295.43" r="283.51"/><path class="cls-2" d="M295.43,590.86C132.53,590.86,0,458.33,0,295.43S132.53,0,295.43,0,590.86,132.53,590.86,295.43,458.33,590.86,295.43,590.86Zm0-567c-149.75,0-271.58,121.83-271.58,271.58S145.68,567,295.43,567,567,445.18,567,295.43,445.18,23.85,295.43,23.85Z"/><circle class="cls-3" cx="493.59" cy="97.27" r="85.35"/><path class="cls-2" d="M493.59,187a89.68,89.68,0,1,1,89.68-89.68A89.78,89.78,0,0,1,493.59,187Zm0-170.69a81,81,0,1,0,81,81A81.1,81.1,0,0,0,493.59,16.26Z"/><path class="cls-1" d="M535.93,69v47.05a7.55,7.55,0,0,1-7.53,7.52H501.12v5.65h7.53a1.88,1.88,0,0,1,0,3.76H478.54a1.88,1.88,0,1,1,0-3.76h7.52v-5.65H458.78a7.55,7.55,0,0,1-7.53-7.52V69a7.55,7.55,0,0,1,7.53-7.52H528.4A7.55,7.55,0,0,1,535.93,69ZM455,110.44h77.15V69a3.78,3.78,0,0,0-3.77-3.76H458.78A3.77,3.77,0,0,0,455,69Zm42.33,13.17h-7.52v5.65h7.52Zm34.82-9.41H455v1.89a3.77,3.77,0,0,0,3.76,3.76H528.4a3.78,3.78,0,0,0,3.77-3.76Z"/><path class="cls-1" d="M508.65,133.29H478.54a2.15,2.15,0,0,1,0-4.3h7.25v-5.11h-27a7.8,7.8,0,0,1-7.8-7.79V69a7.8,7.8,0,0,1,7.8-7.79H528.4A7.8,7.8,0,0,1,536.2,69v47.05a7.8,7.8,0,0,1-7.8,7.79h-27V129h7.26a2.15,2.15,0,1,1,0,4.3Zm-30.11-3.76a1.61,1.61,0,0,0,0,3.22h30.11a1.61,1.61,0,1,0,0-3.22h-7.8v-6.19H528.4a7.26,7.26,0,0,0,7.26-7.25V69a7.26,7.26,0,0,0-7.26-7.25H458.78A7.26,7.26,0,0,0,451.52,69v47.05a7.26,7.26,0,0,0,7.26,7.25h27.56v6.19Zm19.09,0h-8.07v-6.19h8.07ZM490.1,129h7v-5.11h-7Zm38.3-8.87H458.78a4,4,0,0,1-4-4v-2.16h77.7v2.16A4,4,0,0,1,528.4,120.12Zm-73.11-5.64v1.61a3.49,3.49,0,0,0,3.49,3.49H528.4a3.5,3.5,0,0,0,3.5-3.49v-1.61Zm77.15-3.77h-77.7V69a4,4,0,0,1,4-4H528.4a4,4,0,0,1,4,4Zm-77.15-.54H531.9V69a3.5,3.5,0,0,0-3.5-3.49H458.78A3.49,3.49,0,0,0,455.29,69Z"/><path class="cls-4" d="M383.82,266.41c0-.65.12-1.28.12-1.94,0-50.27-49.28-91.16-109.84-91.16S164.27,214.2,164.27,264.47c0,21.12,8.85,41.51,25,57.83l-19.64,40.92a5.25,5.25,0,0,0,7.48,6.74l42.67-26.32a124.59,124.59,0,0,0,30.73,9.68c11.94,30.76,46.67,52,85.82,52a104.19,104.19,0,0,0,44.09-9.61l34.29,21.07a5.25,5.25,0,0,0,7.47-6.75l-15.7-32.64c13-13.33,20.1-29.94,20.1-47.18C426.59,304.21,410.27,280.05,383.82,266.41ZM254.74,343.55A113.78,113.78,0,0,1,221.87,333a5.25,5.25,0,0,0-5.12.22l-29.91,18.44,13.53-28.19a5.25,5.25,0,0,0-1.14-6.11c-15.78-14.73-24.47-33.5-24.47-52.86,0-44.48,44.56-80.67,99.34-80.67s99.34,36.19,99.34,80.67-44.56,80.68-99.34,80.68a118.92,118.92,0,0,1-19.27-1.59Zm141.81,28.89a5.23,5.23,0,0,0-1.15,6.11L405,398.48l-21.53-13.22a5.22,5.22,0,0,0-5.12-.21,93.08,93.08,0,0,1-42,9.78c-32.44,0-61.34-16-73.58-39.8,3.77.32,7.54.61,11.34.61,55.1,0,100.72-33.88,108.53-77.84,20.76,12.08,33.47,31.59,33.47,52.41C416.1,345.7,409.16,360.69,396.55,372.44Z"/><path class="cls-4" d="M222.61,238.25h60.12a5.25,5.25,0,0,0,0-10.5H222.61a5.25,5.25,0,0,0,0,10.5Z"/><path class="cls-4" d="M222.61,269.72h103a5.25,5.25,0,0,0,0-10.49h-103a5.25,5.25,0,1,0,0,10.49Z"/><path class="cls-4" d="M330.84,298.1a5.25,5.25,0,0,0-5.24-5.25h-103a5.25,5.25,0,0,0,0,10.5h103A5.25,5.25,0,0,0,330.84,298.1Z"/></svg>