<svg id="Base" xmlns="http://www.w3.org/2000/svg" viewBox="0 0 590.86 590.86"><defs><style>.cls-1{fill:#fff;}.cls-2{fill:#18243a;}.cls-3{fill:#5e7098;}.cls-4{fill:#55b891;}</style></defs><circle class="cls-1" cx="295.43" cy="295.43" r="283.51"/><path class="cls-2" d="M295.43,590.86C132.53,590.86,0,458.33,0,295.43S132.53,0,295.43,0,590.86,132.53,590.86,295.43,458.33,590.86,295.43,590.86Zm0-567c-149.75,0-271.58,121.83-271.58,271.58S145.68,567,295.43,567,567,445.18,567,295.43,445.18,23.85,295.43,23.85Z"/><circle class="cls-3" cx="493.59" cy="97.27" r="85.35"/><path class="cls-2" d="M493.59,187a89.68,89.68,0,1,1,89.68-89.68A89.78,89.78,0,0,1,493.59,187Zm0-170.69a81,81,0,1,0,81,81A81.1,81.1,0,0,0,493.59,16.26Z"/><path class="cls-1" d="M535.93,69v47.05a7.55,7.55,0,0,1-7.53,7.52H501.12v5.65h7.53a1.88,1.88,0,0,1,0,3.76H478.54a1.88,1.88,0,1,1,0-3.76h7.52v-5.65H458.78a7.55,7.55,0,0,1-7.53-7.52V69a7.55,7.55,0,0,1,7.53-7.52H528.4A7.55,7.55,0,0,1,535.93,69ZM455,110.44h77.15V69a3.78,3.78,0,0,0-3.77-3.76H458.78A3.77,3.77,0,0,0,455,69Zm42.33,13.17h-7.52v5.65h7.52Zm34.82-9.41H455v1.89a3.77,3.77,0,0,0,3.76,3.76H528.4a3.78,3.78,0,0,0,3.77-3.76Z"/><path class="cls-1" d="M508.65,133.29H478.54a2.15,2.15,0,0,1,0-4.3h7.25v-5.11h-27a7.8,7.8,0,0,1-7.8-7.79V69a7.8,7.8,0,0,1,7.8-7.79H528.4A7.8,7.8,0,0,1,536.2,69v47.05a7.8,7.8,0,0,1-7.8,7.79h-27V129h7.26a2.15,2.15,0,1,1,0,4.3Zm-30.11-3.76a1.61,1.61,0,0,0,0,3.22h30.11a1.61,1.61,0,1,0,0-3.22h-7.8v-6.19H528.4a7.26,7.26,0,0,0,7.26-7.25V69a7.26,7.26,0,0,0-7.26-7.25H458.78A7.26,7.26,0,0,0,451.52,69v47.05a7.26,7.26,0,0,0,7.26,7.25h27.55v6.19Zm19.09,0h-8.07v-6.19h8.07ZM490.1,129h7v-5.11h-7Zm38.3-8.87H458.78a4,4,0,0,1-4-4v-2.16h77.7v2.16A4,4,0,0,1,528.4,120.12Zm-73.11-5.64v1.61a3.49,3.49,0,0,0,3.49,3.49H528.4a3.5,3.5,0,0,0,3.5-3.49v-1.61Zm77.15-3.77h-77.7V69a4,4,0,0,1,4-4H528.4a4,4,0,0,1,4,4Zm-77.15-.54H531.9V69a3.5,3.5,0,0,0-3.5-3.49H458.78A3.49,3.49,0,0,0,455.29,69Z"/><path class="cls-4" d="M397.86,348.58,362.25,286.7h0a7,7,0,1,1,12-7.11l35.61,61.87a7,7,0,0,1-12,7.12Z"/><path class="cls-4" d="M331.13,352.08,331,352a6.94,6.94,0,0,1-2.58-9.46l33.73-62.92h0a7,7,0,1,1,12.16,6.75L340.59,349.3a7,7,0,0,1-9.46,2.78Z"/><path class="cls-4" d="M338.36,325.9a6.94,6.94,0,0,1,6.83-7l47.15-.71a6.93,6.93,0,1,1,.21,13.86l-47.15.72A6.94,6.94,0,0,1,338.36,325.9Z"/><path class="cls-4" d="M415.48,427.09l-70.85-39.64-41.6.63a37.29,37.29,0,0,1-37.79-36.67l-1.08-71.07a37.31,37.31,0,0,1,36.67-37.86l126.54-1.91a37.3,37.3,0,0,1,37.86,36.74l1.07,71.07a37.3,37.3,0,0,1-36.74,37.79l-4.29.07.52,34.66a6.87,6.87,0,0,1-6.83,7A6.85,6.85,0,0,1,415.48,427.09ZM301,256.35H301A23.37,23.37,0,0,0,278,280.13l1.07,71.07a23.37,23.37,0,0,0,23.72,23l43.2-.65a7.43,7.43,0,0,1,3.48.85l62.24,34.71-.45-29.61a6.93,6.93,0,0,1,6.83-7l11.24-.17h.06a23.38,23.38,0,0,0,23-23.72l-1.07-71.07a23.44,23.44,0,0,0-23.79-23.08Z"/><path class="cls-4" d="M187.13,230.33a6.93,6.93,0,0,1,6.82-7l55.47-.84a6.94,6.94,0,0,1,.21,13.87l-55.47.83A6.92,6.92,0,0,1,187.13,230.33Z"/><path class="cls-4" d="M214.86,229.91,214.65,216a6.94,6.94,0,0,1,13.87-.21l.21,13.87a6.94,6.94,0,0,1-13.87.21Z"/><path class="cls-4" d="M233.78,284.34c-15.72-7.46-32.29-44.25-35.45-51.55A6.93,6.93,0,1,1,211,227.33c6.83,16.12,20.37,40.68,28.41,44.58a6.93,6.93,0,0,1-2.92,13.15A6.44,6.44,0,0,1,233.78,284.34Z"/><path class="cls-4" d="M189.15,282.71a6.92,6.92,0,0,1,1.74-9.65l41.18-28.36a6.93,6.93,0,0,1,7.8,11.39l-41.18,28.36a6.53,6.53,0,0,1-3.79,1.24A7,7,0,0,1,189.15,282.71Z"/><path class="cls-4" d="M179.92,368.72a6.92,6.92,0,0,1-4.67-6.45l-.53-34.67-11.23.17h0A37.3,37.3,0,0,1,125.63,291l-1.07-71h0a37.3,37.3,0,0,1,36.74-37.86l126.46-1.91h0A37.3,37.3,0,0,1,325.62,217l.49,32a6.94,6.94,0,1,1-13.87.21l-.48-32A23.51,23.51,0,0,0,288,194.13L161.5,196a23.51,23.51,0,0,0-23.08,23.78l1.07,71a23.51,23.51,0,0,0,23.79,23.08l18.17-.27a6.94,6.94,0,0,1,7,6.83l.33,22.46,22-27.24a7,7,0,0,1,5.3-2.57l55.47-.84a6.94,6.94,0,1,1,.21,13.87l-52,.78-32.21,39.6a6.9,6.9,0,0,1-5.3,2.58A7,7,0,0,1,179.92,368.72Z"/></svg>