<svg id="Base" xmlns="http://www.w3.org/2000/svg" viewBox="0 0 590.86 590.86"><defs><style>.cls-1{fill:#fff;}.cls-2{fill:#18243a;}.cls-3{fill:#55b891;}</style></defs><circle class="cls-1" cx="295.43" cy="295.43" r="283.51"/><path class="cls-2" d="M295.43,590.86C132.53,590.86,0,458.33,0,295.43S132.53,0,295.43,0,590.86,132.53,590.86,295.43,458.33,590.86,295.43,590.86Zm0-567c-149.75,0-271.58,121.83-271.58,271.58S145.68,567,295.43,567,567,445.18,567,295.43,445.18,23.85,295.43,23.85Z"/><path class="cls-3" d="M355.75,212.57H159.64a5,5,0,0,0-5,4.81L151,309.57a5.87,5.87,0,0,0,0,.94l5.31,36.38a5,5,0,0,0,4.92,4.29h21.89a32.08,32.08,0,0,0,63.39,0h99a32.09,32.09,0,0,0,63.41,0h6.09c6.45-.1,12.52-1.66,17.22-5.43s7.56-9.85,7.58-16.95a2,2,0,0,0,0-.35l-2.57-36.84c0-.2,0-.39-.08-.59a17.49,17.49,0,0,0-10.59-13.17,3.82,3.82,0,0,0-.82-.22L392.24,271c-1.17-2.82-9.91-23.94-15.28-38.13-3.23-8.54-8.08-13.72-12.27-16.6a23.38,23.38,0,0,0-8.12-3.59,4.47,4.47,0,0,0-.82-.08Zm-191.3,10h190.6c.06,0,1.39.14,4,1.91s6.05,5.13,8.6,11.88c5.84,15.45,16.4,40.94,16.4,40.94a5,5,0,0,0,3.64,3l35.43,7c2.87,1.14,3.61,2.52,4.22,5.62l.39,5.6a12.21,12.21,0,1,0,1.72,24.24l.42,6c0,4.7-1.43,7.26-3.82,9.18s-6.23,3.17-11.14,3.24H409a32,32,0,0,0-56-16H239.13a32,32,0,0,0-56,16H165.63L161,309.5,162,285H299.61a2.5,2.5,0,0,0,0-5H162.19l.39-10h82.1c3.53.21,3.53-5.2,0-5H162.77ZM317,229.49a5,5,0,0,0-4.33,6.26l11.88,44.92a5,5,0,0,0,4.84,3.71h43a5,5,0,0,0,4.68-6.75l-16.86-44.89a5,5,0,0,0-4.7-3.25H317Zm7,10H352l13.09,34.88H333.25Zm-66.33,25.55a2.5,2.5,0,0,0,.23,5H285c3.53.21,3.53-5.2,0-5Zm170.41,38.47,1,14.11a7.05,7.05,0,0,1-6.26-1.35,7.22,7.22,0,0,1-1.52-9.48,7,7,0,0,1,6.52-3.32ZM214.89,324a22.13,22.13,0,1,1-22.15,22.15A22.07,22.07,0,0,1,214.89,324Zm162.38,0a22.13,22.13,0,1,1-22.15,22.15A22.06,22.06,0,0,1,377.27,324Zm-134.58,6.18H349.43a31.64,31.64,0,0,0-3.88,11h-99A32.06,32.06,0,0,0,242.69,330.21Z"/></svg>